<!-- Generator: Adobe Illustrator 21.0.0, SVG Export Plug-In  -->
<svg version="1.1"
	 xmlns="http://www.w3.org/2000/svg" xmlns:xlink="http://www.w3.org/1999/xlink" xmlns:a="http://ns.adobe.com/AdobeSVGViewerExtensions/3.0/"
	 x="0px" y="0px" width="124.5px" height="26.4px" viewBox="0 0 124.5 26.4" style="enable-background:new 0 0 124.5 26.4;"
	 xml:space="preserve">
<style type="text/css">
	.st0{fill:#FFFFFF;}
	.st1{fill:#EDEDED;}
</style>
<defs>
</defs>
<g>
	<path id="XMLID_61_" class="st0" d="M6.4,4.4c1.2,0,2.2,0.2,3.1,0.5c0.8,0.3,1.5,0.7,2,1.3c0.5,0.5,0.9,1.2,1.1,2
		c0.2,0.8,0.3,1.6,0.3,2.6v9.6c-0.6,0.1-1.4,0.3-2.6,0.4C9.1,20.9,7.8,21,6.4,21c-1,0-1.8-0.1-2.6-0.3c-0.8-0.2-1.5-0.5-2-0.9
		c-0.6-0.4-1-0.9-1.3-1.6C0.2,17.6,0,16.8,0,15.9c0-0.9,0.2-1.7,0.5-2.3C0.9,12.9,1.4,12.4,2,12c0.6-0.4,1.3-0.7,2.1-0.9
		c0.8-0.2,1.6-0.3,2.5-0.3c0.4,0,0.8,0,1.3,0.1c0.4,0.1,0.9,0.1,1.4,0.3v-0.6c0-0.4-0.1-0.8-0.2-1.2C9,9.1,8.9,8.7,8.6,8.4
		C8.4,8.1,8,7.9,7.6,7.7C7.2,7.6,6.7,7.5,6,7.5c-0.8,0-1.6,0.1-2.3,0.2C3,7.8,2.4,7.9,2,8.1l-0.5-3C2,5,2.7,4.8,3.6,4.6
		C4.4,4.5,5.4,4.4,6.4,4.4z M6.7,18.1c1.1,0,2-0.1,2.6-0.2v-4.1c-0.2-0.1-0.5-0.1-0.9-0.2c-0.4-0.1-0.8-0.1-1.3-0.1
		c-0.4,0-0.8,0-1.2,0.1c-0.4,0.1-0.8,0.2-1.1,0.3c-0.3,0.2-0.6,0.4-0.8,0.7c-0.2,0.3-0.3,0.7-0.3,1.1c0,0.9,0.3,1.5,0.8,1.8
		C5,17.9,5.8,18.1,6.7,18.1z M15.4,0.6L19.1,0v4.8h10.8v3.1H19.1v6.5c0,1.3,0.2,2.2,0.6,2.7c0.4,0.5,1.1,0.8,2.1,0.8
		c0.7,0,1.3-0.1,1.8-0.2c0.5-0.1,0.9-0.3,1.2-0.4l0.6,2.9c-0.4,0.2-1,0.4-1.7,0.6C23,20.9,22.2,21,21.3,21c-1.1,0-2.1-0.2-2.8-0.5
		c-0.8-0.3-1.4-0.7-1.8-1.3c-0.4-0.6-0.8-1.3-0.9-2.1c-0.2-0.8-0.3-1.8-0.3-2.8V0.6z M41.7,4.8c-1.6,6-3.5,11.5-5.7,16.4
		c-0.4,0.9-0.8,1.7-1.2,2.3c-0.4,0.6-0.9,1.2-1.4,1.6c-0.5,0.4-1.1,0.7-1.8,0.9c-0.6,0.2-1.4,0.3-2.2,0.3c-0.6,0-1.1-0.1-1.7-0.2
		c-0.6-0.1-1-0.3-1.3-0.4l0.7-2.9c0.7,0.3,1.5,0.4,2.2,0.4c1,0,1.7-0.2,2.2-0.7c0.5-0.5,1-1.2,1.4-2.1c-1.2-2.2-2.3-4.7-3.3-7.3
		c-1.1-2.6-2-5.4-2.9-8.4h3.9c0.2,0.9,0.5,1.8,0.7,2.8c0.3,1,0.6,2,1,3c0.3,1,0.7,2,1.1,3.1c0.4,1,0.8,2,1.2,2.8
		c0.6-1.8,1.2-3.7,1.8-5.8c0.6-2,1.1-4,1.5-5.9H41.7z M58,12.8c0,1.2-0.2,2.3-0.5,3.3c-0.3,1-0.8,1.9-1.4,2.6
		c-0.6,0.7-1.3,1.3-2.2,1.7S52.1,21,51,21c-0.7,0-1.4-0.1-2.1-0.3c-0.6-0.2-1.1-0.4-1.5-0.6v6.2h-3.7v-21c0.7-0.2,1.7-0.4,2.8-0.6
		s2.2-0.3,3.5-0.3c1.3,0,2.4,0.2,3.4,0.6c1,0.4,1.8,0.9,2.5,1.7c0.7,0.7,1.2,1.6,1.6,2.6C57.8,10.3,58,11.5,58,12.8z M54.2,12.8
		c0-1.6-0.4-2.9-1.1-3.8c-0.7-0.9-1.9-1.4-3.6-1.4c-0.3,0-0.7,0-1.1,0c-0.4,0-0.7,0.1-1.1,0.2v9.1c0.3,0.2,0.8,0.4,1.3,0.6
		c0.5,0.2,1.1,0.3,1.7,0.3c1.3,0,2.3-0.5,2.9-1.4C53.9,15.6,54.2,14.4,54.2,12.8z M66.1,4.4c1.2,0,2.2,0.2,3.1,0.5
		c0.8,0.3,1.5,0.7,2,1.3c0.5,0.5,0.9,1.2,1.1,2c0.2,0.8,0.3,1.6,0.3,2.6v9.6c-0.6,0.1-1.4,0.3-2.6,0.4c-1.1,0.2-2.4,0.3-3.9,0.3
		c-1,0-1.8-0.1-2.6-0.3c-0.8-0.2-1.5-0.5-2-0.9c-0.6-0.4-1-0.9-1.3-1.6c-0.3-0.6-0.5-1.4-0.5-2.4c0-0.9,0.2-1.7,0.5-2.3
		c0.4-0.6,0.8-1.1,1.4-1.5c0.6-0.4,1.3-0.7,2.1-0.9c0.8-0.2,1.6-0.3,2.5-0.3c0.4,0,0.8,0,1.3,0.1c0.4,0.1,0.9,0.1,1.4,0.3v-0.6
		c0-0.4-0.1-0.8-0.2-1.2c-0.1-0.4-0.3-0.7-0.5-1c-0.3-0.3-0.6-0.5-1-0.7c-0.4-0.2-0.9-0.2-1.6-0.2c-0.8,0-1.6,0.1-2.3,0.2
		c-0.7,0.1-1.3,0.3-1.7,0.4l-0.5-3c0.5-0.2,1.1-0.3,2-0.5C64.1,4.5,65.1,4.4,66.1,4.4z M66.4,18.1c1.1,0,2-0.1,2.6-0.2v-4.1
		c-0.2-0.1-0.5-0.1-0.9-0.2c-0.4-0.1-0.8-0.1-1.3-0.1c-0.4,0-0.8,0-1.2,0.1c-0.4,0.1-0.8,0.2-1.1,0.3c-0.3,0.2-0.6,0.4-0.8,0.7
		c-0.2,0.3-0.3,0.7-0.3,1.1c0,0.9,0.3,1.5,0.8,1.8C64.7,17.9,65.4,18.1,66.4,18.1z M81.3,9.7l3.4-4.9h3.9l-5.3,7.6
		c1.1,1.4,2.2,2.8,3.2,4.2c1,1.4,1.9,2.8,2.5,4h-4c-0.2-0.4-0.4-0.8-0.7-1.2c-0.3-0.4-0.6-0.9-0.9-1.4c-0.3-0.5-0.7-1-1-1.4
		c-0.4-0.5-0.7-0.9-1.1-1.3c-0.7,0.8-1.4,1.7-2.1,2.7s-1.2,1.9-1.7,2.7h-3.7c0.3-0.6,0.7-1.3,1.1-1.9c0.4-0.7,0.9-1.4,1.4-2.1
		c0.5-0.7,1-1.4,1.5-2.1c0.5-0.7,1.1-1.4,1.6-2l-5.4-7.8h4L81.3,9.7z"/>
	<g id="XMLID_12_">
		<path id="XMLID_59_" class="st1" d="M93,13.2h-0.5v-4h-1.4V8.7h3.4v0.5H93V13.2z"/>
		<path id="XMLID_56_" class="st1" d="M96.5,13.2c-0.5,0-0.9-0.2-1.2-0.5c-0.3-0.3-0.4-0.7-0.4-1.3c0-0.5,0.1-1,0.4-1.3
			c0.3-0.3,0.6-0.5,1.1-0.5c0.4,0,0.8,0.1,1,0.4s0.4,0.6,0.4,1.1v0.3h-2.3c0,0.4,0.1,0.7,0.3,0.9c0.2,0.2,0.5,0.3,0.8,0.3
			c0.4,0,0.7-0.1,1.1-0.2V13c-0.2,0.1-0.3,0.1-0.5,0.2C96.9,13.2,96.7,13.2,96.5,13.2z M96.3,10.2c-0.3,0-0.5,0.1-0.6,0.3
			c-0.2,0.2-0.3,0.4-0.3,0.7h1.8c0-0.3-0.1-0.6-0.2-0.7C96.8,10.3,96.6,10.2,96.3,10.2z"/>
		<path id="XMLID_54_" class="st1" d="M99.9,13.2c-0.5,0-0.9-0.1-1.1-0.4c-0.3-0.3-0.4-0.7-0.4-1.3c0-0.6,0.1-1,0.4-1.3
			c0.3-0.3,0.7-0.5,1.2-0.5c0.2,0,0.3,0,0.5,0.1c0.2,0,0.3,0.1,0.4,0.1l-0.2,0.4c-0.1,0-0.2-0.1-0.4-0.1c-0.1,0-0.3,0-0.4,0
			c-0.7,0-1,0.4-1,1.3c0,0.4,0.1,0.7,0.2,1c0.2,0.2,0.4,0.3,0.7,0.3c0.3,0,0.6-0.1,0.9-0.2v0.5C100.6,13.2,100.3,13.2,99.9,13.2z"/>
		<path id="XMLID_52_" class="st1" d="M103.9,13.2V11c0-0.3-0.1-0.5-0.2-0.6c-0.1-0.1-0.3-0.2-0.6-0.2c-0.4,0-0.6,0.1-0.8,0.3
			c-0.2,0.2-0.2,0.5-0.2,0.9v1.8h-0.5V8.4h0.5v1.4c0,0.2,0,0.3,0,0.4h0c0.1-0.2,0.2-0.3,0.4-0.4c0.2-0.1,0.4-0.1,0.6-0.1
			c0.4,0,0.7,0.1,0.9,0.3c0.2,0.2,0.3,0.5,0.3,0.9v2.2H103.9z"/>
		<path id="XMLID_50_" class="st1" d="M107.7,13.2V11c0-0.3-0.1-0.5-0.2-0.6c-0.1-0.1-0.3-0.2-0.6-0.2c-0.4,0-0.6,0.1-0.8,0.3
			c-0.2,0.2-0.2,0.5-0.2,0.9v1.8h-0.5V9.8h0.4l0.1,0.5h0c0.1-0.2,0.3-0.3,0.4-0.4c0.2-0.1,0.4-0.1,0.6-0.1c0.4,0,0.7,0.1,0.9,0.3
			c0.2,0.2,0.3,0.5,0.3,0.9v2.2H107.7z"/>
		<path id="XMLID_47_" class="st1" d="M112.2,11.5c0,0.5-0.1,1-0.4,1.3c-0.3,0.3-0.7,0.5-1.1,0.5c-0.3,0-0.6-0.1-0.8-0.2
			c-0.2-0.1-0.4-0.3-0.5-0.6c-0.1-0.3-0.2-0.6-0.2-0.9c0-0.5,0.1-1,0.4-1.3c0.3-0.3,0.7-0.5,1.1-0.5c0.5,0,0.8,0.2,1.1,0.5
			C112,10.5,112.2,10.9,112.2,11.5z M109.6,11.5c0,0.4,0.1,0.8,0.3,1c0.2,0.2,0.4,0.3,0.8,0.3c0.3,0,0.6-0.1,0.8-0.3s0.3-0.6,0.3-1
			c0-0.4-0.1-0.8-0.3-1c-0.2-0.2-0.4-0.3-0.8-0.3c-0.3,0-0.6,0.1-0.8,0.3C109.7,10.7,109.6,11,109.6,11.5z"/>
		<path id="XMLID_45_" class="st1" d="M113.6,13.2h-0.5V8.4h0.5V13.2z"/>
		<path id="XMLID_42_" class="st1" d="M117.6,11.5c0,0.5-0.1,1-0.4,1.3c-0.3,0.3-0.7,0.5-1.1,0.5c-0.3,0-0.6-0.1-0.8-0.2
			c-0.2-0.1-0.4-0.3-0.5-0.6c-0.1-0.3-0.2-0.6-0.2-0.9c0-0.5,0.1-1,0.4-1.3c0.3-0.3,0.7-0.5,1.1-0.5c0.5,0,0.8,0.2,1.1,0.5
			C117.4,10.5,117.6,10.9,117.6,11.5z M115,11.5c0,0.4,0.1,0.8,0.3,1c0.2,0.2,0.4,0.3,0.8,0.3c0.3,0,0.6-0.1,0.8-0.3s0.3-0.6,0.3-1
			c0-0.4-0.1-0.8-0.3-1c-0.2-0.2-0.4-0.3-0.8-0.3c-0.3,0-0.6,0.1-0.8,0.3C115.1,10.7,115,11,115,11.5z"/>
		<path id="XMLID_38_" class="st1" d="M121.2,9.8v0.3l-0.6,0.1c0.1,0.1,0.1,0.2,0.2,0.3c0,0.1,0.1,0.2,0.1,0.4
			c0,0.3-0.1,0.6-0.3,0.8c-0.2,0.2-0.5,0.3-0.9,0.3c-0.1,0-0.2,0-0.3,0c-0.2,0.1-0.3,0.3-0.3,0.4c0,0.1,0,0.2,0.1,0.2
			c0.1,0,0.2,0.1,0.4,0.1h0.6c0.4,0,0.6,0.1,0.8,0.2c0.2,0.2,0.3,0.4,0.3,0.7c0,0.4-0.1,0.7-0.4,0.9c-0.3,0.2-0.7,0.3-1.3,0.3
			c-0.4,0-0.8-0.1-1-0.2c-0.2-0.2-0.4-0.4-0.4-0.7c0-0.2,0.1-0.4,0.2-0.5c0.1-0.1,0.3-0.3,0.6-0.3c-0.1,0-0.2-0.1-0.2-0.2
			c-0.1-0.1-0.1-0.2-0.1-0.3c0-0.1,0-0.2,0.1-0.3s0.2-0.2,0.3-0.3c-0.2-0.1-0.3-0.2-0.4-0.4c-0.1-0.2-0.2-0.4-0.2-0.6
			c0-0.4,0.1-0.7,0.3-0.9c0.2-0.2,0.5-0.3,0.9-0.3c0.2,0,0.3,0,0.5,0.1H121.2z M118.5,13.7c0,0.2,0.1,0.3,0.2,0.4
			c0.2,0.1,0.4,0.1,0.7,0.1c0.4,0,0.7-0.1,0.9-0.2c0.2-0.1,0.3-0.3,0.3-0.5c0-0.2-0.1-0.3-0.2-0.4c-0.1-0.1-0.3-0.1-0.6-0.1h-0.6
			c-0.2,0-0.4,0.1-0.5,0.2C118.6,13.4,118.5,13.5,118.5,13.7z M118.8,10.9c0,0.2,0.1,0.4,0.2,0.5c0.1,0.1,0.3,0.2,0.6,0.2
			c0.5,0,0.7-0.2,0.7-0.7c0-0.5-0.3-0.8-0.8-0.8c-0.2,0-0.4,0.1-0.6,0.2C118.9,10.4,118.8,10.6,118.8,10.9z"/>
		<path id="XMLID_36_" class="st1" d="M121.4,9.8h0.5l0.7,1.9c0.2,0.4,0.3,0.8,0.3,0.9h0c0-0.1,0.1-0.3,0.2-0.5
			c0.1-0.3,0.4-1,0.8-2.3h0.5l-1.4,3.8c-0.1,0.4-0.3,0.6-0.5,0.8c-0.2,0.2-0.4,0.2-0.7,0.2c-0.2,0-0.3,0-0.5-0.1v-0.4
			c0.1,0,0.2,0,0.4,0c0.3,0,0.6-0.2,0.7-0.6l0.2-0.5L121.4,9.8z"/>
		<path id="XMLID_34_" class="st1" d="M93.1,18.3h1.3v0.4h-1.3V20h-0.4v-1.3h-1.3v-0.4h1.3V17h0.4V18.3z"/>
		<path id="XMLID_31_" class="st1" d="M98.8,18.4c0,0.7-0.2,1.3-0.6,1.7c-0.4,0.4-1,0.6-1.7,0.6h-1.2v-4.5h1.4
			c0.7,0,1.2,0.2,1.6,0.6C98.6,17.2,98.8,17.7,98.8,18.4z M98.3,18.4c0-0.6-0.1-1-0.4-1.3c-0.3-0.3-0.7-0.4-1.3-0.4h-0.8v3.6h0.6
			c0.6,0,1.1-0.2,1.4-0.5C98.1,19.5,98.3,19,98.3,18.4z"/>
		<path id="XMLID_26_" class="st1" d="M101.2,20.8c-0.5,0-0.9-0.2-1.2-0.5c-0.3-0.3-0.4-0.7-0.4-1.3c0-0.5,0.1-1,0.4-1.3
			c0.3-0.3,0.6-0.5,1.1-0.5c0.4,0,0.8,0.1,1,0.4c0.2,0.3,0.4,0.6,0.4,1.1v0.3h-2.3c0,0.4,0.1,0.7,0.3,0.9c0.2,0.2,0.5,0.3,0.8,0.3
			c0.4,0,0.7-0.1,1.1-0.2v0.5c-0.2,0.1-0.3,0.1-0.5,0.2C101.6,20.7,101.4,20.8,101.2,20.8z M101,17.7c-0.3,0-0.5,0.1-0.6,0.3
			c-0.2,0.2-0.3,0.4-0.3,0.7h1.8c0-0.3-0.1-0.6-0.2-0.7S101.3,17.7,101,17.7z"/>
		<path id="XMLID_24_" class="st1" d="M105.4,19.8c0,0.3-0.1,0.6-0.3,0.7c-0.2,0.2-0.6,0.3-1,0.3c-0.4,0-0.8-0.1-1-0.2v-0.5
			c0.2,0.1,0.3,0.1,0.5,0.2c0.2,0,0.4,0.1,0.5,0.1c0.3,0,0.5,0,0.6-0.1c0.1-0.1,0.2-0.2,0.2-0.4c0-0.1-0.1-0.2-0.2-0.3
			c-0.1-0.1-0.3-0.2-0.7-0.3c-0.3-0.1-0.5-0.2-0.7-0.3c-0.1-0.1-0.2-0.2-0.3-0.3c-0.1-0.1-0.1-0.2-0.1-0.4c0-0.3,0.1-0.5,0.3-0.6
			c0.2-0.2,0.5-0.2,0.9-0.2c0.4,0,0.7,0.1,1.1,0.2l-0.2,0.4c-0.3-0.1-0.6-0.2-0.9-0.2c-0.2,0-0.4,0-0.5,0.1
			c-0.1,0.1-0.2,0.2-0.2,0.3c0,0.1,0,0.2,0.1,0.2c0,0.1,0.1,0.1,0.2,0.2c0.1,0.1,0.3,0.1,0.6,0.2c0.4,0.1,0.7,0.3,0.8,0.4
			C105.4,19.4,105.4,19.6,105.4,19.8z"/>
		<path id="XMLID_21_" class="st1" d="M106.2,16.4c0-0.1,0-0.2,0.1-0.3c0.1-0.1,0.1-0.1,0.2-0.1c0.1,0,0.2,0,0.2,0.1
			c0.1,0.1,0.1,0.1,0.1,0.3s0,0.2-0.1,0.3c-0.1,0.1-0.1,0.1-0.2,0.1c-0.1,0-0.2,0-0.2-0.1C106.3,16.6,106.2,16.5,106.2,16.4z
			 M106.8,20.7h-0.5v-3.4h0.5V20.7z"/>
		<path id="XMLID_17_" class="st1" d="M110.6,17.3v0.3l-0.6,0.1c0.1,0.1,0.1,0.2,0.2,0.3c0,0.1,0.1,0.2,0.1,0.4
			c0,0.3-0.1,0.6-0.3,0.8c-0.2,0.2-0.5,0.3-0.9,0.3c-0.1,0-0.2,0-0.3,0c-0.2,0.1-0.3,0.3-0.3,0.4c0,0.1,0,0.2,0.1,0.2
			c0.1,0,0.2,0.1,0.4,0.1h0.6c0.4,0,0.6,0.1,0.8,0.2c0.2,0.2,0.3,0.4,0.3,0.7c0,0.4-0.1,0.7-0.4,0.9c-0.3,0.2-0.7,0.3-1.3,0.3
			c-0.4,0-0.8-0.1-1-0.2c-0.2-0.2-0.4-0.4-0.4-0.7c0-0.2,0.1-0.4,0.2-0.5c0.1-0.1,0.3-0.3,0.6-0.3c-0.1,0-0.2-0.1-0.2-0.2
			c-0.1-0.1-0.1-0.2-0.1-0.3c0-0.1,0-0.2,0.1-0.3s0.2-0.2,0.3-0.3c-0.2-0.1-0.3-0.2-0.4-0.4c-0.1-0.2-0.2-0.4-0.2-0.6
			c0-0.4,0.1-0.7,0.3-0.9c0.2-0.2,0.5-0.3,0.9-0.3c0.2,0,0.3,0,0.5,0.1H110.6z M107.9,21.3c0,0.2,0.1,0.3,0.2,0.4
			c0.2,0.1,0.4,0.1,0.7,0.1c0.4,0,0.7-0.1,0.9-0.2c0.2-0.1,0.3-0.3,0.3-0.5c0-0.2-0.1-0.3-0.2-0.4c-0.1-0.1-0.3-0.1-0.6-0.1h-0.6
			c-0.2,0-0.4,0.1-0.5,0.2C108,20.9,107.9,21.1,107.9,21.3z M108.2,18.4c0,0.2,0.1,0.4,0.2,0.5c0.1,0.1,0.3,0.2,0.6,0.2
			c0.5,0,0.7-0.2,0.7-0.7c0-0.5-0.3-0.8-0.8-0.8c-0.2,0-0.4,0.1-0.6,0.2C108.3,18,108.2,18.2,108.2,18.4z"/>
		<path id="XMLID_15_" class="st1" d="M113.6,20.7v-2.2c0-0.3-0.1-0.5-0.2-0.6c-0.1-0.1-0.3-0.2-0.6-0.2c-0.4,0-0.6,0.1-0.8,0.3
			c-0.2,0.2-0.2,0.5-0.2,0.9v1.8h-0.5v-3.4h0.4l0.1,0.5h0c0.1-0.2,0.3-0.3,0.4-0.4c0.2-0.1,0.4-0.1,0.6-0.1c0.4,0,0.7,0.1,0.9,0.3
			c0.2,0.2,0.3,0.5,0.3,0.9v2.2H113.6z"/>
	</g>
</g>
</svg>
